<svg width="262" height="27" viewBox="0 0 262 27" fill="none" xmlns="http://www.w3.org/2000/svg">
<path d="M0.124 26H13.048V24.632L2.716 24.956V1.124H0.124V26ZM14.5991 26H16.1111L19.1711 17H26.7311L29.9711 26H32.7071L23.6351 0.763999L14.5991 26ZM19.5311 15.956L22.8431 6.164L26.3711 15.956H19.5311ZM36.5248 26H37.9648L37.6768 4.076L51.9328 26.36V1.124H50.5288L50.8528 19.952L38.7928 1.124H36.5248V26ZM75.9411 22.976C74.5011 24.632 71.8731 25.316 69.5331 25.316C62.8371 25.316 59.4531 19.376 59.4531 13.58C59.4531 7.748 62.8371 1.808 69.5331 1.808C71.8731 1.808 74.5011 2.492 75.9411 4.184L76.3011 4.544L77.0571 3.176L76.8051 3.032C74.7531 1.556 71.8371 0.763999 69.3171 0.763999C61.0371 0.763999 56.7171 6.2 56.7171 13.58C56.7171 20.924 61.0371 26.36 69.3171 26.36C71.8371 26.36 74.7531 25.604 76.8051 24.128L77.0571 23.948L76.3011 22.58L75.9411 22.976ZM81.0818 26H94.0058V24.632L83.6738 24.956V13.76H91.7738V12.68H83.6738V2.168L92.5298 2.492V1.124H81.0818V26ZM108.132 22.544C109.464 24.884 113.064 26.36 115.656 26.36C119.58 26.36 123 24.164 123 19.952C123 12.032 110.724 13.76 110.724 6.884C110.724 3.896 112.848 1.808 115.836 1.808C118.536 1.808 120.3 3.284 121.704 5.444L122.784 4.4C120.804 2.132 118.86 0.763999 115.728 0.763999C111.624 0.763999 108.528 3.284 108.528 7.532C108.528 16.1 120.804 14.588 120.804 20.672C120.804 23.66 118.356 25.316 115.584 25.316C113.064 25.316 110.256 23.588 109.068 21.356L108.132 22.544ZM132.568 26H135.124V2.168L143.26 2.492V1.124H124.432V2.492L132.568 2.168V26ZM146.993 26H159.917V24.632L149.585 24.956V13.76H157.685V12.68H149.585V2.168L158.441 2.492V1.124H146.993V26ZM164.719 26H167.311V13.76H175.411V12.68H167.311V2.168L176.167 2.492V1.124H164.719V26ZM175.783 26H177.295L180.355 17H187.915L191.155 26H193.891L184.819 0.763999L175.783 26ZM180.715 15.956L184.027 6.164L187.555 15.956H180.715ZM197.709 26H199.149L198.861 4.076L213.117 26.36V1.124H211.713L212.037 19.952L199.977 1.124H197.709V26ZM230.754 26.36C238.998 26.36 243.318 20.924 243.318 13.58C243.318 6.2 238.998 0.763999 230.754 0.763999C222.474 0.763999 218.154 6.2 218.154 13.58C218.154 20.924 222.474 26.36 230.754 26.36ZM230.754 25.316C223.986 25.316 220.89 19.34 220.89 13.58C220.89 7.784 223.986 1.808 230.754 1.808C237.45 1.808 240.582 7.82 240.582 13.58C240.582 19.304 237.45 25.316 230.754 25.316ZM246.872 22.544C248.204 24.884 251.804 26.36 254.396 26.36C258.32 26.36 261.74 24.164 261.74 19.952C261.74 12.032 249.464 13.76 249.464 6.884C249.464 3.896 251.588 1.808 254.576 1.808C257.276 1.808 259.04 3.284 260.444 5.444L261.524 4.4C259.544 2.132 257.6 0.763999 254.468 0.763999C250.364 0.763999 247.268 3.284 247.268 7.532C247.268 16.1 259.544 14.588 259.544 20.672C259.544 23.66 257.096 25.316 254.324 25.316C251.804 25.316 248.996 23.588 247.808 21.356L246.872 22.544Z" fill="url(#paint0_linear_11_436)"/>
<defs>
<linearGradient id="paint0_linear_11_436" x1="131.5" y1="-5" x2="132" y2="33" gradientUnits="userSpaceOnUse">
<stop stop-color="#434141"/>
<stop offset="0.208333" stop-color="#FEFEFE"/>
<stop offset="0.255208" stop-color="#FEFEFE" stop-opacity="0.12"/>
<stop offset="0.4375" stop-color="#E4E6EA"/>
<stop offset="1" stop-color="#252627"/>
<stop offset="1" stop-color="#DEAB63"/>
</linearGradient>
</defs>
</svg>
