<svg width="326" height="141" viewBox="0 0 326 141" fill="none" xmlns="http://www.w3.org/2000/svg">
<path d="M68.776 124.812C80.062 124.812 88.576 120.39 88.972 106.794V106.728C88.972 106.2 88.312 105.804 87.85 105.804C87.586 105.804 87.322 105.936 87.322 106.2C86.926 119.268 78.742 123.426 67.852 123.426H66.598C50.626 122.898 34.126 115.572 18.88 110.688C26.404 98.346 33.202 76.632 39.472 56.436C42.442 46.8 45.346 37.56 48.118 29.838C50.758 27.462 53.134 24.954 55.246 22.578C57.358 20.07 61.912 14.526 61.912 11.424C61.912 11.16 61.846 10.896 61.78 10.632C61.45 9.642 60.592 9.048 59.272 8.982H59.14C54.982 8.982 50.89 17.034 46.6 28.848C38.614 36.174 28.714 42.84 21.454 42.84C20.596 42.84 19.804 42.774 19.078 42.576L18.814 42.51C18.55 42.51 18.352 42.708 18.352 42.906C18.352 43.302 18.748 43.764 19.342 43.896C20.2 44.094 21.058 44.226 21.982 44.226C28.78 44.226 37.69 38.814 45.346 32.28C37.228 55.512 27.724 93.132 17.164 110.16C14.128 109.236 11.554 108.84 9.376 108.84H9.178C3.634 108.84 0.994 111.546 0.598 114.252L0.532 114.912C0.532 117.816 2.908 120.654 6.868 120.654H7C10.894 120.654 14.656 117.288 18.22 111.744C33.994 116.628 50.626 124.284 67.258 124.812H68.776ZM49.504 26.01C53.134 16.572 56.566 10.368 59.734 10.368H59.866C60.064 10.368 60.196 10.434 60.196 10.434L60.262 10.896C60.262 11.754 59.734 13.008 58.876 14.526C56.764 18.222 52.936 22.578 49.504 26.01ZM6.274 119.268H6.142C3.964 119.268 3.04 118.014 3.04 116.562C3.04 115.704 3.37 114.78 3.898 113.988C5.152 112.074 7.858 110.424 12.082 110.424H12.808C13.666 110.49 14.92 110.754 16.504 111.216C13.204 116.232 9.772 119.268 6.274 119.268ZM95.836 139.464L96.232 139.134C96.166 139.266 96.1 139.332 96.034 139.332L95.836 139.464ZM69.2148 87.324C72.0528 87.324 77.7288 76.038 77.9928 75.51L78.0588 75.246C78.0588 74.916 77.7948 74.718 77.5308 74.718C77.3328 74.718 77.2008 74.85 77.0688 75.048C76.2768 76.698 70.7328 85.938 69.1488 85.938H69.0828C69.0828 85.938 69.0828 83.694 69.5448 81.12C70.1388 78.018 71.1288 74.586 71.5248 73.068L71.7228 72.144L71.5908 71.748C71.3268 71.286 70.9968 71.022 70.6668 71.022C70.2708 71.022 69.8748 71.22 69.4128 71.748C67.6308 73.596 59.9748 81.252 56.7408 82.902C57.2688 78.876 61.8228 70.098 67.4328 70.098C68.2908 70.098 69.1488 70.296 70.0728 70.758C70.2708 70.89 70.4688 70.956 70.6668 70.956C70.9308 70.956 71.1288 70.758 71.1288 70.494C71.1288 70.23 70.9308 69.9 70.4688 69.702C68.9508 68.91 67.5648 68.58 66.2448 68.58C59.3148 68.58 55.0248 78.282 55.0248 82.242C55.0248 82.77 55.0908 83.166 55.2228 83.43C55.4868 84.156 55.8828 84.552 56.5428 84.552H56.8068C59.3808 84.354 66.9048 75.84 68.8848 73.86C68.5548 75.246 67.5648 79.866 67.5648 83.298C67.5648 85.476 67.9608 87.192 69.1488 87.324H69.2148ZM75.9432 87.39L76.2732 87.324C78.1212 86.664 85.6452 69.57 90.3972 68.25L90.5292 68.184L90.6612 68.25C90.7272 68.58 90.7932 68.91 90.7932 69.372C90.7932 72.078 89.3412 76.698 89.3412 79.932C89.3412 81.846 89.8032 83.298 91.3212 83.628H91.5852C92.5752 83.628 94.3572 82.77 96.2712 81.12C97.8552 79.8 99.5712 77.886 101.155 75.576L101.287 75.246C101.287 74.982 101.023 74.85 100.825 74.85C100.627 74.85 100.429 74.916 100.297 75.114C99.3072 76.632 93.4332 82.308 91.2552 82.308H91.0572C90.8592 82.242 90.7932 81.912 90.7932 81.384C90.7932 79.14 92.3772 73.002 92.3772 69.834C92.3772 69.306 92.3112 68.91 92.2452 68.58C91.9152 67.392 91.3212 66.732 90.2652 66.732C90.0012 66.732 89.6712 66.798 89.3412 66.864C85.1172 68.052 79.5072 79.338 76.2732 84.552C77.1312 78.348 80.5632 70.098 82.6752 63.366L83.0052 62.244C83.2692 61.914 83.4012 61.65 83.4012 61.452C83.4012 61.32 83.3352 61.188 83.2692 61.122L83.3352 60.594C83.3352 60.198 83.2032 60.066 83.0052 60.066C82.7412 60.066 82.1472 60.528 81.3552 61.386C81.2232 61.518 80.9592 62.112 80.4972 62.97L80.4312 63.168C80.4312 63.3 80.5632 63.498 80.6952 63.696L78.4512 70.098C76.2072 76.566 74.4912 82.638 74.4912 85.344L74.5572 86.004C74.6892 86.994 75.4152 87.39 75.9432 87.39ZM101.533 91.944C107.803 91.944 120.871 75.972 121.069 75.51L121.135 75.246C121.135 74.982 120.871 74.85 120.607 74.85C120.409 74.85 120.211 74.916 120.079 75.18C119.881 75.642 106.351 90.558 101.005 90.558H100.675C99.7511 90.492 99.3551 89.106 99.3551 86.994C99.3551 86.334 99.4211 85.542 99.4871 84.684C99.9491 80.856 101.269 76.104 103.051 72.078C104.833 68.118 107.011 64.818 109.123 63.96C109.321 63.894 109.585 63.828 109.783 63.828C110.773 63.828 111.697 64.686 112.489 66.732C112.687 67.194 113.215 67.524 113.611 67.524C113.941 67.524 114.139 67.392 114.139 67.128L114.073 66.864C112.819 63.63 111.169 62.31 109.453 62.31C108.991 62.31 108.463 62.442 107.935 62.64C101.863 65.214 98.2991 77.226 97.6391 83.364L97.5071 85.212C97.5071 88.776 98.6951 91.68 101.137 91.944H101.533ZM123.819 82.836C128.109 82.836 131.409 79.668 133.983 75.576L134.115 75.246C134.115 74.982 133.851 74.784 133.587 74.784C133.455 74.784 133.257 74.85 133.125 75.048C130.815 78.81 126.987 81.45 123.159 81.45C121.575 81.45 121.047 80.394 121.047 79.206C121.047 78.084 121.443 76.764 121.839 75.906C122.235 75.972 122.565 75.972 122.895 75.972C126.063 75.972 128.175 73.53 128.175 71.748C128.175 70.89 127.647 70.164 126.591 69.966L125.865 69.9C123.753 69.9 121.311 71.682 120.057 73.992L119.991 74.256C119.727 74.322 119.595 74.454 119.595 74.652L119.661 74.85C119.265 75.84 119.001 76.962 119.001 77.952C119.001 80.526 120.519 82.77 123.819 82.836ZM122.499 74.586C123.291 73.2 124.413 72.012 125.469 71.484L125.733 71.418C126.063 71.418 126.261 71.616 126.261 71.946C126.261 72.078 126.195 72.21 126.129 72.408C125.469 73.53 124.017 74.52 122.499 74.586ZM154.907 140.19L156.227 140.124C174.443 139.068 204.341 127.254 204.341 110.16V109.83C204.209 103.956 199.919 97.488 191.405 90.624L195.893 87.192C196.025 87.126 196.091 86.994 196.091 86.862C196.091 86.466 195.431 85.872 194.903 85.872L194.573 86.004L189.953 89.502C186.323 86.664 182.495 83.892 178.733 80.988C168.503 73.2 164.411 64.95 164.411 56.832V56.238C164.807 36.57 188.567 18.618 203.681 10.038C213.317 4.62599 221.831 1.25999 225.461 1.25999C225.989 1.25999 226.385 1.392 226.715 1.524C226.781 1.58999 226.847 1.656 226.847 1.78799C226.847 1.986 226.715 2.316 226.385 2.91L226.319 3.10799C226.319 3.57 227.045 4.032 227.573 4.032C227.705 4.032 227.903 3.96599 227.969 3.834C228.233 3.24 228.365 2.77799 228.365 2.316C228.365 1.524 227.969 0.863998 227.111 0.467995C226.649 0.203999 225.989 0.0719926 225.197 0.0719926C220.907 0.0719926 212.063 3.30599 202.361 8.784C186.917 17.628 162.695 35.91 162.695 56.238V56.436C162.761 64.95 167.117 73.596 177.941 81.846C181.505 84.552 185.531 87.456 189.029 90.228C181.373 96.102 145.139 121.908 145.139 134.184V134.382C145.337 139.2 150.947 140.19 154.907 140.19ZM153.587 138.804C150.551 138.804 146.723 138.21 146.723 134.712L146.789 134.052C148.373 122.04 180.647 98.808 190.481 91.35C198.665 97.884 201.899 104.088 201.899 109.632V109.83C201.635 126.396 172.397 137.814 155.435 138.738L153.587 138.804ZM201.447 125.802C201.777 125.802 201.975 125.67 201.975 125.406L201.909 125.142C200.853 122.304 200.457 118.476 200.457 114.12C200.457 101.976 203.757 85.938 205.737 77.688C206.991 72.408 209.433 64.29 212.073 56.766C220.257 57.096 229.365 57.69 237.417 57.822C237.747 57.822 237.879 57.624 237.879 57.426C237.879 57.03 237.417 56.436 236.757 56.436C228.969 56.238 220.455 55.776 212.535 55.38L213.327 53.202C215.835 48.45 218.211 43.962 219.861 41.19C220.389 40.2 220.851 39.474 221.181 39.012L221.115 38.682L221.379 38.748C221.709 38.748 221.841 38.55 221.841 38.286L221.775 37.89C221.511 37.296 221.181 36.966 220.851 36.966C220.653 36.966 220.455 37.098 220.257 37.23C219.201 37.362 218.013 38.616 216.825 40.662C215.571 42.906 214.119 46.14 212.667 49.836L211.743 52.278L210.159 55.314C207.255 55.182 204.615 55.116 202.173 55.116C197.157 55.116 193.461 55.446 192.141 56.436C192.009 56.502 191.943 56.634 191.943 56.7C191.943 57.162 192.603 57.756 193.131 57.756L193.461 57.624C194.649 56.766 198.147 56.502 202.899 56.502C204.879 56.502 207.123 56.568 209.499 56.634L206.859 61.848L206.793 62.046C206.793 62.442 207.387 62.97 207.981 62.97H208.047C206.397 68.25 204.945 73.266 204.087 76.896C202.041 85.278 198.807 101.184 198.807 113.526C198.807 118.014 199.203 122.04 200.325 125.01C200.523 125.472 201.051 125.802 201.447 125.802ZM217.34 82.836C221.63 82.836 224.93 79.668 227.504 75.576L227.636 75.246C227.636 74.982 227.372 74.784 227.108 74.784C226.976 74.784 226.778 74.85 226.646 75.048C224.336 78.81 220.508 81.45 216.68 81.45C215.096 81.45 214.568 80.394 214.568 79.206C214.568 78.084 214.964 76.764 215.36 75.906C215.756 75.972 216.086 75.972 216.416 75.972C219.584 75.972 221.696 73.53 221.696 71.748C221.696 70.89 221.168 70.164 220.112 69.966L219.386 69.9C217.274 69.9 214.832 71.682 213.578 73.992L213.512 74.256C213.248 74.322 213.116 74.454 213.116 74.652L213.182 74.85C212.786 75.84 212.522 76.962 212.522 77.952C212.522 80.526 214.04 82.77 217.34 82.836ZM216.02 74.586C216.812 73.2 217.934 72.012 218.99 71.484L219.254 71.418C219.584 71.418 219.782 71.616 219.782 71.946C219.782 72.078 219.716 72.21 219.65 72.408C218.99 73.53 217.538 74.52 216.02 74.586ZM227.255 104.946C227.651 104.946 227.981 104.814 228.245 104.484C228.971 103.56 229.301 99.27 229.301 94.188C229.301 92.604 229.301 90.888 229.235 89.238C229.169 85.674 228.905 82.11 228.575 79.338L229.169 76.566C230.885 77.358 233.327 78.15 236.561 78.15C239.465 78.15 243.029 77.49 247.187 75.708C247.451 75.576 247.517 75.444 247.517 75.312C247.517 75.114 247.319 74.982 246.989 74.982C246.857 74.982 246.725 74.982 246.593 75.048C243.029 76.566 239.861 77.094 237.155 77.094C233.723 77.094 231.017 76.236 229.433 75.444L229.499 74.916C232.997 59.538 239.333 43.896 248.507 43.896H249.233C249.365 43.896 249.563 43.896 249.695 43.962C251.411 44.292 252.071 45.876 252.071 47.658V48.12C251.675 52.674 246.659 56.502 241.643 56.502C240.125 56.502 238.607 56.172 237.221 55.38C237.023 55.248 236.825 55.182 236.627 55.182C236.363 55.182 236.165 55.38 236.165 55.644C236.165 55.908 236.363 56.172 236.759 56.436C238.541 57.426 240.455 57.954 242.369 57.954C244.217 57.954 245.999 57.492 247.715 56.634C251.807 54.588 253.721 51.156 253.721 48.12C253.721 45.48 252.203 43.17 249.431 42.576L247.847 42.444C238.013 42.444 231.413 58.482 227.915 74.124L227.783 74.454L227.519 73.992C227.321 73.662 226.859 73.332 226.463 73.332C226.331 73.332 226.199 73.398 226.133 73.464C226.001 73.596 225.935 73.662 225.935 73.794C225.935 74.19 226.331 74.586 226.397 74.652C226.595 75.312 226.793 76.698 226.991 78.48C225.869 84.156 225.209 89.634 224.945 93.99C224.879 95.112 224.879 96.168 224.879 97.158C224.879 101.25 225.407 104.022 226.397 104.682C226.661 104.88 226.991 104.946 227.255 104.946ZM226.991 103.692L226.925 103.626L226.991 103.692ZM226.793 103.428C226.529 102.834 226.463 101.448 226.463 99.402C226.463 98.082 226.463 96.498 226.595 94.65C226.793 92.076 227.057 89.172 227.519 86.07C227.585 88.248 227.717 90.954 227.717 93.528C227.717 98.148 227.453 102.504 226.793 103.428ZM258.191 87.324C261.029 87.324 266.705 76.038 266.969 75.51L267.035 75.246C267.035 74.916 266.771 74.718 266.507 74.718C266.309 74.718 266.177 74.85 266.045 75.048C265.253 76.698 259.709 85.938 258.125 85.938H258.059C258.059 85.938 258.059 83.694 258.521 81.12C259.115 78.018 260.105 74.586 260.501 73.068L260.699 72.144L260.567 71.748C260.303 71.286 259.973 71.022 259.643 71.022C259.247 71.022 258.851 71.22 258.389 71.748C256.607 73.596 248.951 81.252 245.717 82.902C246.245 78.876 250.799 70.098 256.409 70.098C257.267 70.098 258.125 70.296 259.049 70.758C259.247 70.89 259.445 70.956 259.643 70.956C259.907 70.956 260.105 70.758 260.105 70.494C260.105 70.23 259.907 69.9 259.445 69.702C257.927 68.91 256.541 68.58 255.221 68.58C248.291 68.58 244.001 78.282 244.001 82.242C244.001 82.77 244.067 83.166 244.199 83.43C244.463 84.156 244.859 84.552 245.519 84.552H245.783C248.357 84.354 255.881 75.84 257.861 73.86C257.531 75.246 256.541 79.866 256.541 83.298C256.541 85.476 256.937 87.192 258.125 87.324H258.191ZM264.92 87.39L265.25 87.324C267.098 86.664 274.622 69.57 279.374 68.25L279.506 68.184L279.638 68.25C279.704 68.58 279.77 68.91 279.77 69.372C279.77 72.078 278.318 76.698 278.318 79.932C278.318 81.846 278.78 83.298 280.298 83.628H280.562C281.552 83.628 283.334 82.77 285.248 81.12C286.832 79.8 288.548 77.886 290.132 75.576L290.264 75.246C290.264 74.982 290 74.85 289.802 74.85C289.604 74.85 289.406 74.916 289.274 75.114C288.284 76.632 282.41 82.308 280.232 82.308H280.034C279.836 82.242 279.77 81.912 279.77 81.384C279.77 79.14 281.354 73.002 281.354 69.834C281.354 69.306 281.288 68.91 281.222 68.58C280.892 67.392 280.298 66.732 279.242 66.732C278.978 66.732 278.648 66.798 278.318 66.864C274.094 68.052 268.484 79.338 265.25 84.552C266.108 78.348 269.54 70.098 271.652 63.366L271.982 62.244C272.246 61.914 272.378 61.65 272.378 61.452C272.378 61.32 272.312 61.188 272.246 61.122L272.312 60.594C272.312 60.198 272.18 60.066 271.982 60.066C271.718 60.066 271.124 60.528 270.332 61.386C270.2 61.518 269.936 62.112 269.474 62.97L269.408 63.168C269.408 63.3 269.54 63.498 269.672 63.696L267.428 70.098C265.184 76.566 263.468 82.638 263.468 85.344L263.534 86.004C263.666 86.994 264.392 87.39 264.92 87.39ZM289.916 87.06C291.17 87.06 292.424 85.806 293.546 83.628C294.866 81.252 296.186 77.16 296.846 73.2C298.43 73.596 300.08 73.794 301.73 73.794C302.918 73.794 304.172 73.662 305.36 73.464C305.624 73.398 305.756 73.266 305.756 73.068C305.756 72.672 305.162 72.078 304.568 72.078H304.436C303.314 72.276 302.126 72.408 300.938 72.408C299.618 72.408 298.298 72.276 297.044 72.012L297.176 70.098C297.176 66.534 295.592 65.28 293.942 65.28C292.16 65.28 290.246 66.798 290.18 68.25C290.18 68.712 290.378 69.24 290.642 69.702L289.982 71.022C288.926 73.398 287.144 78.678 287.144 82.506C287.144 84.552 287.672 86.268 289.058 86.862C289.322 86.994 289.586 87.06 289.916 87.06ZM295.394 71.55C294.536 71.286 293.546 70.824 292.952 70.362C293.084 70.032 293.282 69.768 293.414 69.504C293.678 69.504 293.81 69.438 293.876 69.24L293.942 68.712C293.942 68.118 293.678 67.59 293.546 67.392C293.81 67.194 294.404 66.798 294.8 66.798C294.932 66.798 295.064 66.864 295.13 66.996C295.394 67.392 295.592 68.184 295.592 69.306C295.592 69.966 295.526 70.692 295.394 71.55ZM289.784 85.608C289.586 85.608 289.454 85.41 289.322 84.948C289.19 84.486 289.124 83.958 289.124 83.364C289.124 80.064 290.708 74.784 292.424 71.352C293.216 71.946 294.206 72.408 295.196 72.738C294.47 76.566 293.282 80.328 292.028 82.704C291.764 83.1 290.51 85.608 289.784 85.608ZM300.562 98.808C302.872 98.808 309.472 94.056 311.452 92.34C313.498 90.69 314.356 89.172 314.356 87.72C314.356 86.994 314.158 86.334 313.828 85.674L325.246 75.312C325.378 75.18 325.444 75.048 325.444 74.982C325.444 74.784 325.246 74.652 324.982 74.652C324.85 74.652 324.652 74.718 324.454 74.85L312.838 84.156C311.716 82.638 310 81.186 308.548 79.866C306.7 78.15 305.908 76.302 305.908 74.454C305.908 71.946 307.294 69.438 309.34 67.128C311.65 64.554 314.818 62.31 317.458 60.792C319.306 59.736 320.164 59.538 320.956 59.274C320.692 59.472 320.626 59.67 320.626 59.868C320.626 60.396 321.286 60.858 321.88 60.858C322.672 60.858 323.596 60.264 323.662 59.34V59.274C323.662 58.812 323.2 58.02 322.606 57.69C322.408 57.558 322.144 57.492 321.814 57.492C320.56 57.492 318.448 58.218 316.204 59.538C313.432 61.056 310.264 63.366 307.888 66.072C305.776 68.448 304.258 71.154 304.258 73.926C304.258 76.104 305.182 78.348 307.492 80.526C309.01 81.912 310.99 83.562 311.914 85.014C306.832 89.37 301.42 94.122 299.704 96.498C299.374 96.96 299.242 97.29 299.242 97.62C299.242 98.148 299.572 98.478 300.232 98.742L300.562 98.808ZM301.948 96.63C303.928 94.386 308.086 90.69 312.64 86.73V86.994C312.64 90.624 304.588 95.244 301.948 96.63Z" fill="#7E7E7E"/>
</svg>
