<svg width="469" height="175" viewBox="0 0 469 175" fill="none" xmlns="http://www.w3.org/2000/svg">
<path d="M17.056 174.6C34.624 173.64 54.304 146.472 67.936 113.928C78.016 112.008 89.824 106.728 103.552 97.032C103.744 96.936 103.84 96.744 103.84 96.552C103.84 95.976 102.88 95.112 102.112 95.112L101.632 95.304C89.056 104.136 78.208 109.224 68.896 111.432C77.632 89.928 85.12 63.24 85.12 40.104C85.12 21.96 80.128 0.839996 58.528 0.839996H58.336C41.44 0.935989 29.44 17.352 24.256 37.608C22.24 45.384 21.184 53.64 21.184 61.8C21.184 64.488 21.28 67.272 21.568 69.96C17.248 80.712 0.0639999 124.2 0.0639999 151.656C0.0639999 165.096 4.192 174.6 15.904 174.6H17.056ZM16 172.488H15.04C5.728 172.488 2.368 164.424 2.368 152.808C2.368 127.08 18.784 84.36 22.24 75.432C25.696 97.512 38.08 114.792 59.488 114.792C61.216 114.792 63.04 114.6 64.864 114.408C51.424 145.704 32.704 171.624 16 172.488ZM58.528 112.776C40.864 112.776 29.824 100.104 25.504 80.712C24.832 77.64 24.256 74.28 23.968 71.016C25.504 67.176 27.04 63.528 28.576 59.88C33.088 49.32 37.984 40.104 42.4 33.192C46.528 26.664 49.984 22.152 52.096 20.424L51.904 21.864C51.904 22.632 52.864 23.304 53.632 23.304C53.92 23.304 54.112 23.112 54.208 22.824C54.4 21.96 54.592 21.096 54.592 20.232C54.592 19.08 54.208 18.12 52.864 17.736H52.576C50.176 17.736 45.184 23.688 40.192 31.752C33.856 41.64 28.96 51.912 23.584 64.872V62.856C23.584 54.696 24.64 46.44 26.56 38.856C31.744 18.984 43.168 2.95199 59.296 2.856H59.392C78.4 2.856 82.72 21.96 82.72 39.336V39.912C82.528 63.528 74.752 90.504 65.824 112.104C63.328 112.584 60.832 112.776 58.528 112.776ZM139.878 90.504C136.422 95.784 120.582 112.68 114.726 114.024C113.862 114.312 114.15 114.12 114.054 113.448C113.766 112.392 113.766 110.952 113.958 109.032C114.534 104.904 116.166 99.144 119.046 92.04C121.734 88.488 124.326 84.456 126.726 80.136C126.918 79.752 126.534 79.08 125.862 78.696C122.886 76.68 119.91 83.016 118.758 85.608C117.99 87.336 117.318 88.968 116.646 90.504C112.23 96.456 107.718 101.256 104.166 103.944C91.1095 113.736 107.238 85.704 108.87 83.592C109.542 82.824 106.278 80.424 105.702 81.288C101.67 86.472 97.8295 96.648 97.0615 102.024C96.7735 103.944 96.8695 105.384 97.4455 106.344C101.094 112.584 110.79 102.024 113.67 98.664C112.23 103.176 108.678 114.888 114.822 116.136C117.51 116.712 122.694 113.064 128.166 107.592C131.91 103.752 136.326 98.472 141.03 91.368C141.606 90.504 140.454 89.64 139.878 90.504ZM133.97 112.008L134.738 111.912C136.466 111.912 143.474 86.088 146.45 85.032L146.93 84.936C147.602 84.936 148.466 85.416 149.81 86.568C151.442 87.816 153.746 88.968 156.914 88.968H157.298C157.778 88.968 157.874 88.776 157.874 88.488C157.874 87.912 157.106 86.952 156.146 86.952H155.858C150.578 86.952 149.81 81.576 147.026 80.424L146.354 80.328C143.954 80.328 141.842 85.608 136.85 99.816C138.77 91.944 141.554 82.44 143.09 78.984L143.186 78.696C143.186 78.024 142.13 77.256 141.458 77.256C141.17 77.256 140.882 77.352 140.786 77.64C139.058 81.672 133.202 101.352 132.242 108.936V109.704C132.242 111.624 133.202 112.008 133.97 112.008ZM181.785 134.376C182.361 134.376 182.841 134.184 183.225 133.704C184.281 132.36 184.761 126.12 184.761 118.728C184.761 116.424 184.761 113.928 184.665 111.528C184.569 106.344 184.185 101.16 183.705 97.128L184.569 93.096C187.065 94.248 190.617 95.4 195.321 95.4C199.545 95.4 204.729 94.44 210.777 91.848C211.161 91.656 211.257 91.464 211.257 91.272C211.257 90.984 210.969 90.792 210.489 90.792C210.297 90.792 210.105 90.792 209.913 90.888C204.729 93.096 200.121 93.864 196.185 93.864C191.193 93.864 187.257 92.616 184.953 91.464L185.049 90.696C190.137 68.328 199.353 45.576 212.697 45.576H213.753C213.945 45.576 214.233 45.576 214.425 45.672C216.921 46.152 217.881 48.456 217.881 51.048V51.72C217.305 58.344 210.009 63.912 202.713 63.912C200.505 63.912 198.297 63.432 196.281 62.28C195.993 62.088 195.705 61.992 195.417 61.992C195.033 61.992 194.745 62.28 194.745 62.664C194.745 63.048 195.033 63.432 195.609 63.816C198.201 65.256 200.985 66.024 203.769 66.024C206.457 66.024 209.049 65.352 211.545 64.104C217.497 61.128 220.281 56.136 220.281 51.72C220.281 47.88 218.073 44.52 214.041 43.656L211.737 43.464C197.433 43.464 187.833 66.792 182.745 89.544L182.553 90.024L182.169 89.352C181.881 88.872 181.209 88.392 180.633 88.392C180.441 88.392 180.249 88.488 180.153 88.584C179.961 88.776 179.865 88.872 179.865 89.064C179.865 89.64 180.441 90.216 180.537 90.312C180.825 91.272 181.113 93.288 181.401 95.88C179.769 104.136 178.809 112.104 178.425 118.44C178.329 120.072 178.329 121.608 178.329 123.048C178.329 129 179.097 133.032 180.537 133.992C180.921 134.28 181.401 134.376 181.785 134.376ZM181.401 132.552L181.305 132.456L181.401 132.552ZM181.113 132.168C180.729 131.304 180.633 129.288 180.633 126.312C180.633 124.392 180.633 122.088 180.825 119.4C181.113 115.656 181.497 111.432 182.169 106.92C182.265 110.088 182.457 114.024 182.457 117.768C182.457 124.488 182.073 130.824 181.113 132.168ZM209.695 108.36C211.519 108.36 213.343 106.536 214.975 103.368C216.895 99.912 218.815 93.96 219.775 88.2C222.079 88.776 224.479 89.064 226.879 89.064C228.607 89.064 230.431 88.872 232.159 88.584C232.543 88.488 232.735 88.296 232.735 88.008C232.735 87.432 231.871 86.568 231.007 86.568H230.815C229.183 86.856 227.455 87.048 225.727 87.048C223.807 87.048 221.887 86.856 220.063 86.472L220.255 83.688C220.255 78.504 217.951 76.68 215.551 76.68C212.959 76.68 210.175 78.888 210.079 81C210.079 81.672 210.367 82.44 210.751 83.112L209.791 85.032C208.255 88.488 205.663 96.168 205.663 101.736C205.663 104.712 206.431 107.208 208.447 108.072C208.831 108.264 209.215 108.36 209.695 108.36ZM217.663 85.8C216.415 85.416 214.975 84.744 214.111 84.072C214.303 83.592 214.591 83.208 214.783 82.824C215.167 82.824 215.359 82.728 215.455 82.44L215.551 81.672C215.551 80.808 215.167 80.04 214.975 79.752C215.359 79.464 216.223 78.888 216.799 78.888C216.991 78.888 217.183 78.984 217.279 79.176C217.663 79.752 217.951 80.904 217.951 82.536C217.951 83.496 217.855 84.552 217.663 85.8ZM209.503 106.248C209.215 106.248 209.023 105.96 208.831 105.288C208.639 104.616 208.543 103.848 208.543 102.984C208.543 98.184 210.847 90.504 213.343 85.512C214.495 86.376 215.935 87.048 217.375 87.528C216.319 93.096 214.591 98.568 212.767 102.024C212.383 102.6 210.559 106.248 209.503 106.248ZM267.996 90.504C264.54 95.784 248.7 112.68 242.844 114.024C241.98 114.312 242.268 114.12 242.172 113.448C241.884 112.392 241.884 110.952 242.076 109.032C242.652 104.904 244.284 99.144 247.164 92.04C249.852 88.488 252.444 84.456 254.844 80.136C255.036 79.752 254.652 79.08 253.98 78.696C251.004 76.68 248.028 83.016 246.876 85.608C246.108 87.336 245.436 88.968 244.764 90.504C240.348 96.456 235.836 101.256 232.284 103.944C219.228 113.736 235.356 85.704 236.988 83.592C237.66 82.824 234.396 80.424 233.82 81.288C229.788 86.472 225.948 96.648 225.18 102.024C224.892 103.944 224.988 105.384 225.564 106.344C229.212 112.584 238.908 102.024 241.788 98.664C240.348 103.176 236.796 114.888 242.94 116.136C245.628 116.712 250.812 113.064 256.284 107.592C260.028 103.752 264.444 98.472 269.148 91.368C269.724 90.504 268.572 89.64 267.996 90.504ZM263.528 108.84L264.008 108.744C266.696 107.784 277.64 82.92 284.552 81L284.744 80.904L284.936 81C285.032 81.48 285.128 81.96 285.128 82.632C285.128 86.568 283.016 93.288 283.016 97.992C283.016 100.776 283.688 102.888 285.896 103.368H286.28C287.72 103.368 290.312 102.12 293.096 99.72C295.4 97.8 297.896 95.016 300.201 91.656L300.392 91.176C300.392 90.792 300.009 90.6 299.72 90.6C299.432 90.6 299.144 90.696 298.952 90.984C297.512 93.192 288.968 101.448 285.8 101.448H285.512C285.224 101.352 285.128 100.872 285.128 100.104C285.128 96.84 287.432 87.912 287.432 83.304C287.432 82.536 287.336 81.96 287.24 81.48C286.76 79.752 285.896 78.792 284.36 78.792C283.976 78.792 283.496 78.888 283.016 78.984C276.872 80.712 268.712 97.128 264.008 104.712C265.256 95.688 270.248 83.688 273.32 73.896L273.8 72.264C274.184 71.784 274.376 71.4 274.376 71.112C274.376 70.92 274.28 70.728 274.184 70.632L274.28 69.864C274.28 69.288 274.088 69.096 273.8 69.096C273.416 69.096 272.552 69.768 271.4 71.016C271.208 71.208 270.824 72.072 270.152 73.32L270.056 73.608C270.056 73.8 270.248 74.088 270.44 74.376L267.176 83.688C263.912 93.096 261.416 101.928 261.416 105.864L261.512 106.824C261.704 108.264 262.76 108.84 263.528 108.84ZM316.398 133.704C317.166 133.704 318.03 133.608 318.894 133.32C319.182 133.224 319.278 133.032 319.278 132.84C319.278 132.168 318.414 131.304 317.646 131.304L317.262 131.4C316.59 131.592 316.11 131.688 315.534 131.688C313.518 131.688 312.654 130.056 312.078 126.408C311.886 125.256 311.886 124.008 311.886 122.664C311.886 119.592 312.174 115.944 312.75 111.912C314.574 99.72 318.798 84.744 322.446 73.416C326.478 65.64 329.358 59.784 329.454 59.592C331.566 55.176 332.526 52.488 332.814 51.144V50.664C332.814 49.512 332.142 48.936 330.99 48.84H330.894C329.07 48.84 326.382 54.888 324.75 58.824C323.598 61.8 321.87 66.504 320.046 72.072C318.99 74.088 317.934 76.2 316.686 78.408C315.342 75.336 312.27 70.92 308.622 70.92C307.566 70.92 306.51 71.208 305.454 72.072C300.942 75.528 292.878 95.976 292.878 106.152C292.878 107.784 293.07 109.224 293.55 110.184C294.222 111.624 294.99 112.296 296.046 112.296C297.006 112.296 298.158 111.624 299.406 110.472C304.302 105.864 312.366 91.752 316.302 84.744C313.614 94.536 309.486 110.856 309.486 121.704C309.486 123.144 309.486 124.488 309.678 125.736C310.35 130.728 312.75 133.704 316.398 133.704ZM295.95 110.376C295.854 110.376 295.758 110.376 295.758 110.28C295.47 109.704 295.374 108.936 295.374 107.976C295.374 98.952 305.166 74.088 310.83 74.088C311.118 74.088 311.502 74.184 311.79 74.376C312.75 74.952 313.71 76.296 314.67 78.792C314.862 79.272 315.342 79.752 315.918 79.848C314.574 82.152 297.87 110.376 295.95 110.376ZM352.707 164.712C353.091 164.712 353.475 164.52 353.475 164.136L353.379 163.752C351.843 159.624 351.267 154.056 351.267 147.72C351.267 130.056 356.067 106.728 358.947 94.728C360.771 87.24 364.131 75.72 367.875 64.872L368.067 64.68C379.491 65.448 392.547 66.504 404.931 66.504C414.339 66.504 423.171 65.928 430.659 64.2C431.043 64.104 431.139 63.912 431.139 63.72C431.139 63.048 430.275 62.28 429.507 62.28H429.219C422.019 63.912 413.379 64.488 404.259 64.488C392.451 64.488 379.971 63.528 369.027 62.76C371.331 58.344 373.443 54.12 375.267 50.472C378.627 43.944 380.739 39.048 381.315 37.992L381.795 38.088C382.083 38.088 382.371 37.896 382.371 37.608V37.224C382.371 36.456 381.795 35.976 380.835 35.88L380.259 35.976C378.627 35.976 376.899 37.8 375.075 40.872C371.907 46.344 368.451 55.464 365.955 62.568C360.195 62.184 355.011 61.896 350.691 61.896C345.027 61.896 340.899 62.376 339.075 63.816C338.883 63.912 338.883 64.104 338.883 64.2C338.883 64.872 339.843 65.736 340.611 65.736L341.091 65.544C342.627 64.296 346.275 63.912 351.363 63.912C355.203 63.912 359.907 64.2 365.091 64.488C356.739 80.52 346.851 98.088 342.243 99.528C342.147 99.048 342.051 98.472 342.051 97.8C342.051 94.728 343.299 89.832 343.875 88.008C343.971 87.624 344.067 87.336 344.067 87.048L344.547 87.144C344.931 87.144 345.219 86.952 345.219 86.568L345.123 86.28C343.587 82.344 341.283 80.712 338.595 80.712C337.539 80.712 336.387 81 335.235 81.48C331.491 83.016 327.459 87.24 324.387 91.464C321.411 95.592 319.299 100.008 319.299 102.216V102.312C319.491 103.848 320.259 104.712 321.891 104.712H322.467C326.211 104.424 337.827 92.712 340.707 89.928C340.323 91.752 339.651 94.632 339.651 96.936C339.651 97.8 339.747 98.568 339.939 99.24C340.419 100.776 341.571 101.64 342.915 101.64L343.971 101.448C347.715 100.2 354.339 89.736 360.867 77.928C359.139 83.88 357.603 89.352 356.547 93.576C353.571 105.768 348.867 129 348.867 146.856C348.867 153.384 349.443 159.24 351.075 163.56C351.363 164.232 352.131 164.712 352.707 164.712ZM321.699 102.6C321.987 97.896 332.643 82.92 339.075 82.92C340.419 82.92 341.571 83.496 342.435 85.032C341.955 85.128 341.379 85.416 340.707 86.088C338.595 88.296 325.923 101.064 321.699 102.6ZM378.275 76.008C379.523 76.008 380.387 74.856 380.387 73.608C380.387 72.84 380.003 71.976 378.947 71.4C378.563 71.208 378.179 71.112 377.795 71.112C376.547 71.112 375.587 72.264 375.587 73.512C375.587 74.376 376.067 75.24 377.027 75.72C377.411 75.912 377.891 76.008 378.275 76.008ZM373.763 109.608C379.331 109.608 386.147 96.84 389.219 90.792L389.315 90.408C389.315 89.928 389.027 89.736 388.643 89.736C388.355 89.736 387.971 89.928 387.779 90.312C384.323 97.224 376.643 107.592 372.899 107.592H372.707C371.939 107.112 371.651 105.096 371.651 102.504C371.651 95.976 373.667 85.224 375.683 83.208L375.875 82.824C375.875 82.152 374.915 81.288 374.147 81.288C373.955 81.288 373.763 81.384 373.571 81.576C371.267 83.88 369.059 92.712 369.059 99.816C369.059 104.04 369.827 107.688 371.843 109.032C372.419 109.416 373.091 109.608 373.763 109.608ZM387.269 108.36C389.093 108.36 390.917 106.536 392.549 103.368C394.469 99.912 396.389 93.96 397.349 88.2C399.653 88.776 402.053 89.064 404.453 89.064C406.181 89.064 408.005 88.872 409.733 88.584C410.117 88.488 410.309 88.296 410.309 88.008C410.309 87.432 409.445 86.568 408.581 86.568H408.389C406.757 86.856 405.029 87.048 403.301 87.048C401.381 87.048 399.461 86.856 397.637 86.472L397.829 83.688C397.829 78.504 395.525 76.68 393.125 76.68C390.533 76.68 387.749 78.888 387.653 81C387.653 81.672 387.941 82.44 388.325 83.112L387.365 85.032C385.829 88.488 383.237 96.168 383.237 101.736C383.237 104.712 384.005 107.208 386.021 108.072C386.405 108.264 386.789 108.36 387.269 108.36ZM395.237 85.8C393.989 85.416 392.549 84.744 391.685 84.072C391.877 83.592 392.165 83.208 392.357 82.824C392.741 82.824 392.933 82.728 393.029 82.44L393.125 81.672C393.125 80.808 392.741 80.04 392.549 79.752C392.933 79.464 393.797 78.888 394.373 78.888C394.565 78.888 394.757 78.984 394.853 79.176C395.237 79.752 395.525 80.904 395.525 82.536C395.525 83.496 395.429 84.552 395.237 85.8ZM387.077 106.248C386.789 106.248 386.597 105.96 386.405 105.288C386.213 104.616 386.117 103.848 386.117 102.984C386.117 98.184 388.421 90.504 390.917 85.512C392.069 86.376 393.509 87.048 394.949 87.528C393.893 93.096 392.165 98.568 390.341 102.024C389.957 102.6 388.133 106.248 387.077 106.248ZM404.866 108.84L405.346 108.744C408.034 107.784 418.978 82.92 425.89 81L426.082 80.904L426.274 81C426.37 81.48 426.466 81.96 426.466 82.632C426.466 86.568 424.354 93.288 424.354 97.992C424.354 100.776 425.026 102.888 427.234 103.368H427.618C429.058 103.368 431.65 102.12 434.434 99.72C436.738 97.8 439.234 95.016 441.538 91.656L441.73 91.176C441.73 90.792 441.346 90.6 441.058 90.6C440.77 90.6 440.482 90.696 440.29 90.984C438.85 93.192 430.306 101.448 427.138 101.448H426.85C426.562 101.352 426.466 100.872 426.466 100.104C426.466 96.84 428.77 87.912 428.77 83.304C428.77 82.536 428.674 81.96 428.578 81.48C428.098 79.752 427.234 78.792 425.698 78.792C425.314 78.792 424.834 78.888 424.354 78.984C418.21 80.712 410.05 97.128 405.346 104.712C406.594 95.688 411.586 83.688 414.658 73.896L415.138 72.264C415.522 71.784 415.714 71.4 415.714 71.112C415.714 70.92 415.618 70.728 415.522 70.632L415.618 69.864C415.618 69.288 415.426 69.096 415.138 69.096C414.754 69.096 413.89 69.768 412.738 71.016C412.546 71.208 412.162 72.072 411.49 73.32L411.394 73.608C411.394 73.8 411.586 74.088 411.778 74.376L408.514 83.688C405.25 93.096 402.754 101.928 402.754 105.864L402.85 106.824C403.042 108.264 404.098 108.84 404.866 108.84ZM432.008 125.448C435.368 125.448 444.968 118.536 447.848 116.04C450.824 113.64 452.072 111.432 452.072 109.32C452.072 108.264 451.784 107.304 451.304 106.344L467.912 91.272C468.104 91.08 468.2 90.888 468.2 90.792C468.2 90.504 467.912 90.312 467.528 90.312C467.336 90.312 467.048 90.408 466.76 90.6L449.864 104.136C448.232 101.928 445.736 99.816 443.624 97.896C440.936 95.4 439.784 92.712 439.784 90.024C439.784 86.376 441.8 82.728 444.776 79.368C448.136 75.624 452.744 72.36 456.584 70.152C459.272 68.616 460.52 68.328 461.672 67.944C461.288 68.232 461.192 68.52 461.192 68.808C461.192 69.576 462.152 70.248 463.016 70.248C464.168 70.248 465.512 69.384 465.608 68.04V67.944C465.608 67.272 464.936 66.12 464.072 65.64C463.784 65.448 463.4 65.352 462.92 65.352C461.096 65.352 458.024 66.408 454.76 68.328C450.728 70.536 446.12 73.896 442.664 77.832C439.592 81.288 437.384 85.224 437.384 89.256C437.384 92.424 438.728 95.688 442.088 98.856C444.296 100.872 447.176 103.272 448.52 105.384C441.128 111.72 433.256 118.632 430.76 122.088C430.28 122.76 430.088 123.24 430.088 123.72C430.088 124.488 430.568 124.968 431.528 125.352L432.008 125.448ZM434.024 122.28C436.904 119.016 442.952 113.64 449.576 107.88V108.264C449.576 113.544 437.864 120.264 434.024 122.28Z" fill="#9E9E9E"/>
</svg>
